<?xml version="1.0" encoding="utf-8"?>
<!-- Generator: Adobe Illustrator 16.0.0, SVG Export Plug-In . SVG Version: 6.00 Build 0)  -->
<!DOCTYPE svg PUBLIC "-//W3C//DTD SVG 1.1//EN" "http://www.w3.org/Graphics/SVG/1.1/DTD/svg11.dtd">
<svg version="1.1" id="Layer_1" xmlns="http://www.w3.org/2000/svg" xmlns:xlink="http://www.w3.org/1999/xlink" x="0px" y="0px"
	 width="229.254px" height="44px" viewBox="0 0 229.254 44" enable-background="new 0 0 229.254 44" xml:space="preserve">
<g>
	<path d="M66.536,15.98c-0.84-0.792-2.016-1.188-3.528-1.188c-1.08,0-2.028,0.229-2.844,0.684c-0.816,0.456-1.494,1.056-2.034,1.8
		c-0.54,0.745-0.948,1.59-1.224,2.538c-0.276,0.949-0.414,1.915-0.414,2.898c0,0.984,0.138,1.95,0.414,2.898
		s0.684,1.794,1.224,2.538s1.218,1.344,2.034,1.8c0.815,0.456,1.764,0.684,2.844,0.684c0.696,0,1.356-0.132,1.98-0.396
		s1.176-0.631,1.656-1.099c0.48-0.468,0.876-1.025,1.188-1.674c0.312-0.647,0.504-1.355,0.576-2.124h2.268
		c-0.312,2.256-1.14,4.014-2.484,5.274c-1.344,1.26-3.072,1.89-5.184,1.89c-1.416,0-2.67-0.258-3.762-0.773
		c-1.092-0.517-2.011-1.219-2.754-2.106c-0.745-0.888-1.309-1.926-1.692-3.114c-0.384-1.188-0.576-2.453-0.576-3.798
		c0-1.344,0.192-2.61,0.576-3.798s0.948-2.226,1.692-3.114c0.743-0.888,1.662-1.596,2.754-2.124
		c1.092-0.527,2.346-0.792,3.762-0.792c1.992,0,3.678,0.528,5.058,1.584c1.38,1.057,2.202,2.652,2.466,4.788h-2.268
		C67.952,17.864,67.376,16.772,66.536,15.98L66.536,15.98z M78.848,15.476c-0.816,0.456-1.494,1.056-2.034,1.8
		c-0.54,0.745-0.948,1.59-1.224,2.538c-0.276,0.949-0.414,1.915-0.414,2.898c0,0.984,0.138,1.95,0.414,2.898
		c0.276,0.948,0.684,1.794,1.224,2.538s1.218,1.344,2.034,1.8s1.764,0.684,2.844,0.684s2.028-0.228,2.844-0.684
		s1.494-1.056,2.034-1.8s0.948-1.59,1.224-2.538c0.275-0.948,0.414-1.914,0.414-2.898c0-0.983-0.139-1.949-0.414-2.898
		c-0.276-0.948-0.684-1.793-1.224-2.538c-0.54-0.744-1.218-1.344-2.034-1.8c-0.816-0.456-1.764-0.684-2.844-0.684
		S79.664,15.021,78.848,15.476L78.848,15.476z M85.454,13.676c1.092,0.528,2.01,1.236,2.754,2.124
		c0.744,0.889,1.308,1.926,1.692,3.114c0.384,1.188,0.576,2.454,0.576,3.798c0,1.345-0.192,2.61-0.576,3.798
		c-0.384,1.188-0.948,2.227-1.692,3.114c-0.744,0.888-1.662,1.59-2.754,2.106c-1.093,0.516-2.346,0.773-3.762,0.773
		c-1.417,0-2.67-0.258-3.762-0.773c-1.092-0.517-2.01-1.219-2.754-2.106c-0.744-0.888-1.308-1.926-1.692-3.114
		c-0.384-1.188-0.576-2.453-0.576-3.798c0-1.344,0.192-2.61,0.576-3.798c0.384-1.188,0.948-2.226,1.692-3.114
		c0.744-0.888,1.662-1.596,2.754-2.124c1.092-0.527,2.346-0.792,3.762-0.792C83.108,12.884,84.361,13.148,85.454,13.676
		L85.454,13.676z M95.948,13.424v3.132h0.108c0.6-1.151,1.386-2.052,2.358-2.7c0.972-0.648,2.214-0.972,3.726-0.972
		c1.224,0,2.334,0.301,3.33,0.9c0.996,0.6,1.662,1.512,1.998,2.736c0.552-1.224,1.368-2.136,2.448-2.736
		c1.08-0.6,2.232-0.9,3.456-0.9c4.104,0,6.155,2.173,6.155,6.516V32h-2.268V19.508c0-1.535-0.324-2.705-0.972-3.51
		c-0.648-0.804-1.789-1.206-3.42-1.206c-0.984,0-1.8,0.187-2.448,0.558c-0.648,0.373-1.165,0.87-1.548,1.494
		c-0.384,0.625-0.654,1.338-0.81,2.143c-0.157,0.804-0.234,1.638-0.234,2.502V32h-2.268V19.4c0-0.624-0.066-1.218-0.198-1.782
		c-0.132-0.563-0.348-1.056-0.648-1.476c-0.3-0.419-0.702-0.75-1.206-0.99c-0.504-0.24-1.116-0.36-1.836-0.36
		c-0.96,0-1.794,0.174-2.502,0.522c-0.708,0.348-1.284,0.828-1.728,1.44c-0.444,0.612-0.774,1.332-0.99,2.16
		c-0.216,0.828-0.324,1.734-0.324,2.718V32H93.86V13.424H95.948L95.948,13.424z M125.936,13.424v3.528h0.072
		c0.527-1.296,1.386-2.298,2.574-3.006c1.188-0.708,2.537-1.062,4.05-1.062c1.415,0,2.646,0.265,3.69,0.792
		c1.043,0.528,1.913,1.242,2.609,2.143c0.695,0.899,1.211,1.943,1.548,3.132c0.336,1.188,0.504,2.442,0.504,3.762
		c0,1.32-0.168,2.574-0.504,3.763c-0.337,1.188-0.853,2.231-1.548,3.131c-0.696,0.9-1.566,1.608-2.609,2.125
		c-1.045,0.516-2.275,0.773-3.69,0.773c-0.673,0-1.345-0.084-2.017-0.252s-1.295-0.42-1.871-0.756s-1.087-0.756-1.531-1.26
		c-0.443-0.504-0.785-1.092-1.025-1.765h-0.072V38.84h-2.268V13.424H125.936L125.936,13.424z M138.373,19.85
		c-0.229-0.948-0.588-1.794-1.08-2.538c-0.492-0.744-1.121-1.35-1.889-1.818c-0.77-0.468-1.693-0.702-2.772-0.702
		c-1.249,0-2.292,0.216-3.132,0.648c-0.841,0.432-1.512,1.008-2.017,1.728c-0.504,0.72-0.858,1.561-1.062,2.52
		c-0.205,0.96-0.307,1.968-0.307,3.024c0,0.96,0.113,1.914,0.342,2.862s0.6,1.794,1.117,2.538c0.516,0.744,1.188,1.35,2.016,1.817
		c0.828,0.469,1.842,0.702,3.042,0.702c1.079,0,2.003-0.233,2.772-0.702c0.768-0.468,1.396-1.073,1.889-1.817s0.852-1.59,1.08-2.538
		s0.343-1.902,0.343-2.862S138.602,20.798,138.373,19.85L138.373,19.85z M149.516,15.476c-0.816,0.456-1.494,1.056-2.034,1.8
		c-0.54,0.745-0.948,1.59-1.224,2.538c-0.277,0.949-0.414,1.915-0.414,2.898c0,0.984,0.137,1.95,0.414,2.898
		c0.275,0.948,0.684,1.794,1.224,2.538s1.218,1.344,2.034,1.8c0.815,0.456,1.764,0.684,2.844,0.684s2.027-0.228,2.844-0.684
		s1.494-1.056,2.034-1.8s0.948-1.59,1.224-2.538s0.414-1.914,0.414-2.898c0-0.983-0.139-1.949-0.414-2.898
		c-0.275-0.948-0.684-1.793-1.224-2.538c-0.54-0.744-1.218-1.344-2.034-1.8c-0.816-0.456-1.764-0.684-2.844-0.684
		S150.331,15.021,149.516,15.476L149.516,15.476z M156.121,13.676c1.092,0.528,2.01,1.236,2.754,2.124
		c0.744,0.889,1.309,1.926,1.692,3.114s0.575,2.454,0.575,3.798c0,1.345-0.191,2.61-0.575,3.798
		c-0.384,1.188-0.948,2.227-1.692,3.114s-1.662,1.59-2.754,2.106c-1.092,0.516-2.346,0.773-3.762,0.773s-2.67-0.258-3.762-0.773
		c-1.093-0.517-2.011-1.219-2.754-2.106c-0.744-0.888-1.309-1.926-1.692-3.114c-0.384-1.188-0.576-2.453-0.576-3.798
		c0-1.344,0.192-2.61,0.576-3.798s0.948-2.226,1.692-3.114c0.743-0.888,1.661-1.596,2.754-2.124
		c1.092-0.527,2.346-0.792,3.762-0.792S155.029,13.148,156.121,13.676L156.121,13.676z M166.76,13.424v3.204h0.071
		c0.433-1.128,1.2-2.034,2.304-2.718c1.104-0.684,2.316-1.026,3.637-1.026c1.296,0,2.381,0.168,3.258,0.504
		c0.876,0.337,1.578,0.811,2.105,1.422c0.528,0.612,0.9,1.362,1.116,2.25c0.216,0.888,0.324,1.884,0.324,2.988V32h-2.269V20.408
		c0-0.792-0.071-1.53-0.215-2.214c-0.145-0.685-0.396-1.278-0.756-1.782c-0.361-0.504-0.847-0.9-1.459-1.188
		c-0.611-0.288-1.374-0.432-2.285-0.432c-0.913,0-1.723,0.162-2.431,0.486c-0.708,0.324-1.308,0.768-1.8,1.332
		s-0.877,1.236-1.152,2.016c-0.275,0.78-0.426,1.626-0.449,2.538V32h-2.269V13.424H166.76L166.76,13.424z M196.765,18.932
		c-0.276-0.792-0.666-1.494-1.17-2.106c-0.504-0.612-1.116-1.104-1.836-1.476c-0.72-0.372-1.536-0.558-2.448-0.558
		c-0.936,0-1.764,0.187-2.484,0.558c-0.719,0.373-1.332,0.864-1.836,1.476c-0.504,0.612-0.906,1.32-1.205,2.124
		c-0.301,0.804-0.498,1.626-0.594,2.466h12.023C197.19,20.552,197.041,19.724,196.765,18.932L196.765,18.932z M185.533,25.862
		c0.228,0.876,0.594,1.662,1.098,2.357c0.504,0.696,1.14,1.272,1.908,1.729c0.768,0.456,1.691,0.684,2.771,0.684
		c1.656,0,2.952-0.432,3.889-1.296c0.936-0.864,1.584-2.016,1.943-3.456h2.268c-0.48,2.112-1.361,3.744-2.646,4.896
		c-1.284,1.152-3.103,1.729-5.454,1.729c-1.464,0-2.73-0.258-3.798-0.773c-1.068-0.517-1.938-1.225-2.61-2.125
		c-0.672-0.899-1.17-1.943-1.494-3.131c-0.323-1.188-0.485-2.442-0.485-3.763c0-1.224,0.162-2.424,0.485-3.6
		c0.324-1.176,0.822-2.226,1.494-3.15c0.672-0.924,1.542-1.668,2.61-2.232c1.067-0.563,2.334-0.846,3.798-0.846
		c1.488,0,2.76,0.301,3.816,0.9c1.056,0.6,1.914,1.386,2.574,2.358c0.659,0.972,1.134,2.088,1.422,3.348
		c0.287,1.26,0.408,2.538,0.359,3.834h-14.291C185.191,24.141,185.305,24.986,185.533,25.862L185.533,25.862z M204.775,13.424v3.204
		h0.071c0.433-1.128,1.2-2.034,2.304-2.718c1.104-0.684,2.316-1.026,3.637-1.026c1.295,0,2.381,0.168,3.258,0.504
		c0.875,0.337,1.578,0.811,2.105,1.422s0.9,1.362,1.116,2.25c0.216,0.888,0.324,1.884,0.324,2.988V32h-2.269V20.408
		c0-0.792-0.072-1.53-0.216-2.214c-0.144-0.685-0.396-1.278-0.756-1.782s-0.846-0.9-1.458-1.188
		c-0.611-0.288-1.374-0.432-2.286-0.432s-1.722,0.162-2.43,0.486c-0.708,0.324-1.309,0.768-1.8,1.332
		c-0.492,0.564-0.877,1.236-1.152,2.016c-0.276,0.78-0.426,1.626-0.449,2.538V32h-2.269V13.424H204.775L204.775,13.424z
		 M229.254,13.424v1.908h-3.779V27.86c0,0.744,0.102,1.326,0.306,1.745c0.204,0.421,0.714,0.654,1.53,0.703
		c0.647,0,1.296-0.037,1.943-0.108v1.907c-0.336,0-0.672,0.013-1.008,0.037c-0.336,0.023-0.672,0.035-1.008,0.035
		c-1.512,0-2.568-0.293-3.168-0.882c-0.6-0.588-0.889-1.674-0.864-3.258V15.332h-3.239v-1.908h3.239v-5.58h2.269v5.58H229.254
		L229.254,13.424z"/>
	<path fill-rule="evenodd" clip-rule="evenodd" d="M21.936,27.432c3.047,0,5.518-2.492,5.518-5.567s-2.471-5.568-5.518-5.568
		c-3.047,0-5.518,2.493-5.518,5.568S18.889,27.432,21.936,27.432L21.936,27.432z M21.936,27.432"/>
	<path fill-rule="evenodd" clip-rule="evenodd" d="M21.801,44C9.761,44,0,34.15,0,22S9.761,0,21.801,0
		c6.447,0,12.24,2.824,16.232,7.313l-4.357,3.56c-2.925-3.18-7.102-5.169-11.741-5.169c-8.844,0-16.014,7.235-16.014,16.161
		c0,8.925,7.17,16.16,16.014,16.16c4.827,0,9.155-2.154,12.091-5.563l4.487,3.667C34.514,40.94,28.512,44,21.801,44L21.801,44z
		 M21.801,44"/>
	<path fill-rule="evenodd" clip-rule="evenodd" d="M34.928,30.918c1.75-2.59,2.773-5.721,2.773-9.092
		c0-3.535-1.125-6.806-3.035-9.467l4.356-3.56c2.72,3.671,4.331,8.227,4.331,13.163c0,4.695-1.458,9.047-3.941,12.619L34.928,30.918
		L34.928,30.918z M34.928,30.918"/>
</g>
</svg>
